<svg width="323" height="114" viewBox="0 0 323 114" fill="none" xmlns="http://www.w3.org/2000/svg">
<mask id="mask0_204_12103" style="mask-type:alpha" maskUnits="userSpaceOnUse" x="0" y="0" width="323" height="114">
<rect width="323" height="114" rx="18" fill="#F1F5F9"/>
</mask>
<g mask="url(#mask0_204_12103)">
<path d="M303.557 58.6173C303.557 52.9705 298.979 48.3928 293.332 48.3928H228.577C222.93 48.3928 218.352 52.9705 218.352 58.6173V114H303.557V58.6173Z" fill="#4A77FD"/>
<path fill-rule="evenodd" clip-rule="evenodd" d="M54.9273 40C58.6705 40 62.1145 42.0455 63.9055 45.3325L65.2416 47.7846C66.9932 50.9994 70.3616 53 74.0227 53H131.775C137.422 53 142 57.5777 142 63.2245V106C142 111.523 137.523 116 132 116H103.549C103.036 116 102.71 116.549 102.955 117C103.201 117.451 102.874 118 102.361 118H27C25.8954 118 25 117.105 25 116V63.2245V50.2245C25 44.5777 29.5777 40 35.2245 40H54.9273Z" fill="#638AFF"/>
<path fill-rule="evenodd" clip-rule="evenodd" d="M112.073 36C108.329 36 104.885 38.0455 103.094 41.3325L92.4956 60.7846C90.7439 63.9994 87.3755 66 83.7145 66H35.2245C29.5777 66 25 70.5777 25 76.2245V119C25 124.523 29.4771 129 35 129H212C217.523 129 222 124.523 222 119V114V76.2245V46.2245C222 40.5777 217.422 36 211.775 36H112.073Z" fill="#4A77FD"/>
<path d="M138 10.903C138 5.25614 142.578 0.678467 148.225 0.678467H261.546C267.193 0.678467 271.771 5.25613 271.771 10.903V114H138V10.903Z" fill="#638AFF"/>
<rect x="155.041" y="49.2449" width="99.6889" height="6.81634" rx="3.40817" fill="#8EAAFA"/>
<rect x="155.041" y="66.2856" width="99.6889" height="6.81634" rx="3.40817" fill="#8EAAFA"/>
<rect x="155.041" y="83.3267" width="45.1582" height="6.81634" rx="3.40817" fill="#8EAAFA"/>
<rect x="75" y="95.3267" width="45.1582" height="6.81634" rx="3.40817" fill="#8EAAFA"/>
<rect x="36" y="50" width="18" height="7" rx="3.5" fill="white"/>
<rect x="155" y="21" width="67" height="11" rx="2" fill="#8EAAFA"/>
</g>
</svg>
