<svg width="266" height="201" viewBox="0 0 266 201" fill="none" xmlns="http://www.w3.org/2000/svg">
<path fill-rule="evenodd" clip-rule="evenodd" d="M87.0192 157.716C85.7604 154.037 85.4386 149.594 87.8711 147.066L113.038 120.853C115.253 120.608 120.364 120.212 121.746 119.665C123.251 119.061 124.737 118.278 126.194 117.316C128.797 115.599 131.391 114.741 133.974 114.741C136.596 114.741 139.322 115.618 142.133 117.373C146.175 119.891 150.225 121.155 154.276 121.155C158.072 121.155 161.782 120.051 165.397 117.835C164.366 121.542 163.826 125.419 163.826 129.39C163.826 140.219 167.811 150.123 174.398 157.726L87.0192 157.716ZM78.4632 36.7217V33.6655C78.4632 25.9306 81.6245 18.903 86.7355 13.8186C91.8371 8.73425 98.8882 5.57422 106.649 5.57422H120.591C128.352 5.57422 135.403 8.72483 140.505 13.8186C145.606 18.903 148.777 25.9304 148.777 33.6655V36.7217H169.638C172.127 36.7217 174.171 38.7498 174.171 41.2401V43.1361C174.171 45.6168 172.127 47.6544 169.638 47.6544H164.091C162.87 47.6544 161.876 48.6449 161.876 49.8617V104.251C161.876 104.779 162.009 105.26 162.369 105.637L165.501 108.901C165.066 109.25 164.735 109.495 164.574 109.58C163.684 110.033 162.851 110.524 162.056 111.042C159.453 112.759 156.86 113.618 154.276 113.618C151.655 113.618 148.929 112.74 146.118 110.986C142.076 108.467 138.025 107.203 133.974 107.203C130.255 107.203 126.62 108.269 123.071 110.392L127.633 105.637C128.002 105.26 128.125 104.779 128.125 104.251V94.6858H141.698C143.78 94.6858 145.474 92.9973 145.474 90.9221C145.474 88.8468 143.78 87.1584 141.698 87.1584H128.125V83.4702H141.698C143.78 83.4702 145.474 81.7817 145.474 79.7065C145.474 77.6312 143.78 75.9427 141.698 75.9427H128.125V72.2546H141.698C143.78 72.2546 145.474 70.5756 145.474 68.4909C145.474 66.4156 143.78 64.7271 141.698 64.7271H128.125V61.039H141.698C143.78 61.039 145.474 59.3599 145.474 57.2753C145.474 55.2 143.78 53.5115 141.698 53.5115H128.125V49.8516C128.125 48.6348 127.131 47.6444 125.91 47.6444H120.364C117.875 47.6444 115.83 45.6163 115.83 43.126V41.23C115.83 38.7492 117.865 36.7116 120.364 36.7116H141.224V33.6554C141.224 27.9956 138.905 22.8547 135.167 19.1289C131.428 15.403 126.27 13.0918 120.591 13.0918H106.65C100.971 13.0918 95.8125 15.4029 92.0646 19.1289C88.326 22.8549 86.0072 27.9958 86.0072 33.6554V36.7116H98.4344C100.678 36.7116 102.514 38.5416 102.514 40.7772V42.8524C102.514 45.088 100.678 46.918 98.4344 46.918H96.3237L96.3332 77.8107H68.1565V46.9277H66.0458C63.8027 46.9277 61.9665 45.0977 61.9665 42.8621V40.7869C61.9665 38.5513 63.8027 36.7213 66.0458 36.7213L78.4632 36.7217ZM44.3817 63.4344H60.6042V75.2631L44.3817 75.2726V157.717H26.7679V19.8187H44.3911V63.4351L44.3817 63.4344ZM96.3327 85.3281H68.1559V96.704C68.1559 104.429 74.4973 110.75 82.2489 110.75C90.0005 110.75 96.3419 104.429 96.3419 96.704L96.3327 85.3281ZM19.7812 182.797V165.233H246.215V182.797H19.7812ZM222.279 96.7308C221.096 96.1931 220.376 95.0801 220.376 93.7877V77.5159C220.376 76.6292 221.105 75.9029 222.004 75.9029H223.339C224.986 75.9029 226.339 74.554 226.339 72.9126V70.7336C226.339 69.0923 224.986 67.7434 223.339 67.7434H191.377C189.731 67.7434 188.377 69.0923 188.377 70.7336V72.9126C188.377 74.5539 189.731 75.9029 191.377 75.9029H192.721C193.611 75.9029 194.349 76.6292 194.349 77.5159V93.7877C194.349 95.0894 193.63 96.193 192.447 96.7308C182.405 101.296 174.843 110.324 172.306 121.265C172.514 121.303 172.732 121.36 172.931 121.435C175.032 122.199 177.086 122.444 179.083 122.171C181.118 121.897 183.181 121.067 185.263 119.7C193.091 114.54 201.117 114.521 209.342 119.643C212.162 121.397 214.879 122.275 217.5 122.275C220.094 122.275 222.677 121.416 225.28 119.699C228.148 117.813 231.082 116.615 234.092 116.124C236.325 115.756 238.569 115.785 240.821 116.2C237.404 107.569 230.721 100.57 222.279 96.7308ZM242.95 124.096C242.353 124.218 241.71 124.19 241.085 124.001C239.116 123.388 237.195 123.237 235.312 123.539C233.371 123.86 231.422 124.661 229.453 125.963C225.572 128.52 221.597 129.802 217.508 129.802C213.457 129.802 209.416 128.538 205.365 126.02C199.866 122.595 194.557 122.577 189.417 125.963C186.388 127.963 183.274 129.18 180.085 129.614C177.189 130.01 174.292 129.746 171.377 128.84C171.377 129.019 171.368 129.199 171.368 129.378C171.368 140.905 176.829 151.158 185.3 157.713H229.395C237.866 151.157 243.328 140.904 243.328 129.378C243.337 127.586 243.205 125.812 242.95 124.096ZM224.446 141.084C226.935 141.084 228.961 143.103 228.961 145.584C228.961 148.065 226.935 150.083 224.446 150.083C221.957 150.083 219.931 148.065 219.931 145.584C219.931 143.103 221.957 141.084 224.446 141.084ZM202.516 128.793C204.741 128.793 206.539 130.586 206.539 132.802C206.539 135.019 204.741 136.811 202.516 136.811C200.292 136.811 198.494 135.019 198.494 132.802C198.484 130.586 200.292 128.793 202.516 128.793ZM190.704 144.084C192.881 144.084 194.651 145.848 194.651 148.017C194.651 150.187 192.881 151.951 190.704 151.951C188.527 151.951 186.758 150.187 186.758 148.017C186.758 145.848 188.527 144.084 190.704 144.084ZM157.522 135.104C153.953 135.104 151.067 137.981 151.067 141.537C151.067 145.093 153.953 147.97 157.522 147.97C161.09 147.97 163.977 145.093 163.977 141.537C163.977 137.981 161.09 135.104 157.522 135.104ZM134.75 126.784C132.44 126.784 130.576 128.642 130.576 130.944C130.576 133.236 132.44 135.104 134.75 135.104C137.05 135.104 138.924 133.236 138.924 130.944C138.924 128.642 137.059 126.784 134.75 126.784ZM115.498 142.188C112.384 142.188 109.857 144.706 109.857 147.81C109.857 150.913 112.385 153.432 115.498 153.432C118.612 153.432 121.139 150.913 121.139 147.81C121.149 144.706 118.622 142.188 115.498 142.188Z" fill="#AEC3FF"/>
<rect x="4.14185" y="182.892" width="257.716" height="17.6216" fill="#8EAAFA"/>
</svg>
